<svg aria-roledescription="er" role="graphics-document document" viewBox="0 0 795.451171875 1402" style="max-width: 795.451171875px;" xmlns="http://www.w3.org/2000/svg" width="100%" id="mermaidSvgChart"><style>#mermaidSvgChart{font-family:"trebuchet ms",verdana,arial,sans-serif;font-size:16px;fill:#000000;}#mermaidSvgChart .error-icon{fill:#552222;}#mermaidSvgChart .error-text{fill:#552222;stroke:#552222;}#mermaidSvgChart .edge-thickness-normal{stroke-width:2px;}#mermaidSvgChart .edge-thickness-thick{stroke-width:3.5px;}#mermaidSvgChart .edge-pattern-solid{stroke-dasharray:0;}#mermaidSvgChart .edge-pattern-dashed{stroke-dasharray:3;}#mermaidSvgChart .edge-pattern-dotted{stroke-dasharray:2;}#mermaidSvgChart .marker{fill:#666;stroke:#666;}#mermaidSvgChart .marker.cross{stroke:#666;}#mermaidSvgChart svg{font-family:"trebuchet ms",verdana,arial,sans-serif;font-size:16px;}#mermaidSvgChart .entityBox{fill:#eee;stroke:#999;}#mermaidSvgChart .attributeBoxOdd{fill:#ffffff;stroke:#999;}#mermaidSvgChart .attributeBoxEven{fill:#f2f2f2;stroke:#999;}#mermaidSvgChart .relationshipLabelBox{fill:hsl(-160, 0%, 93.3333333333%);opacity:0.7;background-color:hsl(-160, 0%, 93.3333333333%);}#mermaidSvgChart .relationshipLabelBox rect{opacity:0.5;}#mermaidSvgChart .relationshipLine{stroke:#666;}#mermaidSvgChart .entityTitleText{text-anchor:middle;font-size:18px;fill:#000000;}#mermaidSvgChart :root{--mermaid-font-family:"trebuchet ms",verdana,arial,sans-serif;}</style><g></g><defs><marker orient="auto" markerHeight="18" markerWidth="18" refY="9" refX="0" id="ONLY_ONE_START"><path d="M9,0 L9,18 M15,0 L15,18" fill="none" stroke="gray"></path></marker></defs><defs><marker orient="auto" markerHeight="18" markerWidth="18" refY="9" refX="18" id="ONLY_ONE_END"><path d="M3,0 L3,18 M9,0 L9,18" fill="none" stroke="gray"></path></marker></defs><defs><marker orient="auto" markerHeight="18" markerWidth="30" refY="9" refX="0" id="ZERO_OR_ONE_START"><circle r="6" cy="9" cx="21" fill="white" stroke="gray"></circle><path d="M9,0 L9,18" fill="none" stroke="gray"></path></marker></defs><defs><marker orient="auto" markerHeight="18" markerWidth="30" refY="9" refX="30" id="ZERO_OR_ONE_END"><circle r="6" cy="9" cx="9" fill="white" stroke="gray"></circle><path d="M21,0 L21,18" fill="none" stroke="gray"></path></marker></defs><defs><marker orient="auto" markerHeight="36" markerWidth="45" refY="18" refX="18" id="ONE_OR_MORE_START"><path d="M0,18 Q 18,0 36,18 Q 18,36 0,18 M42,9 L42,27" fill="none" stroke="gray"></path></marker></defs><defs><marker orient="auto" markerHeight="36" markerWidth="45" refY="18" refX="27" id="ONE_OR_MORE_END"><path d="M3,9 L3,27 M9,18 Q27,0 45,18 Q27,36 9,18" fill="none" stroke="gray"></path></marker></defs><defs><marker orient="auto" markerHeight="36" markerWidth="57" refY="18" refX="18" id="ZERO_OR_MORE_START"><circle r="6" cy="18" cx="48" fill="white" stroke="gray"></circle><path d="M0,18 Q18,0 36,18 Q18,36 0,18" fill="none" stroke="gray"></path></marker></defs><defs><marker orient="auto" markerHeight="36" markerWidth="57" refY="18" refX="39" id="ZERO_OR_MORE_END"><circle r="6" cy="18" cx="9" fill="white" stroke="gray"></circle><path d="M21,18 Q39,0 57,18 Q39,36 21,18" fill="none" stroke="gray"></path></marker></defs><path style="stroke: gray; fill: none;" marker-start="url(#ONLY_ONE_START)" marker-end="url(#ONE_OR_MORE_END)" d="M688.158,1214L688.158,1222.333C688.158,1230.667,688.158,1247.333,688.158,1264C688.158,1280.667,688.158,1297.333,688.158,1305.667L688.158,1314" class="er relationshipLine"></path><path style="stroke: gray; fill: none;" marker-start="url(#ONLY_ONE_START)" marker-end="url(#ONE_OR_MORE_END)" d="M688.158,1024L688.158,1032.333C688.158,1040.667,688.158,1057.333,688.158,1074C688.158,1090.667,688.158,1107.333,688.158,1115.667L688.158,1124" class="er relationshipLine"></path><path style="stroke: gray; fill: none;" marker-start="url(#ONLY_ONE_START)" marker-end="url(#ONE_OR_MORE_END)" d="M688.158,834L688.158,842.333C688.158,850.667,688.158,867.333,688.158,884C688.158,900.667,688.158,917.333,688.158,925.667L688.158,934" class="er relationshipLine"></path><path style="stroke: gray; fill: none;" marker-start="url(#ONLY_ONE_START)" marker-end="url(#ONE_OR_MORE_END)" d="M688.158,644L688.158,652.333C688.158,660.667,688.158,677.333,688.158,694C688.158,710.667,688.158,727.333,688.158,735.667L688.158,744" class="er relationshipLine"></path><path style="stroke: gray; fill: none;" marker-start="url(#ONLY_ONE_START)" marker-end="url(#ONE_OR_MORE_END)" d="M200.17,80.664L178.297,90.22C156.424,99.776,112.679,118.888,94.062,136.777C75.444,154.667,81.954,171.333,85.21,179.667L88.465,188" class="er relationshipLine"></path><path style="stroke: gray; fill: none;" marker-start="url(#ONLY_ONE_START)" marker-end="url(#ONE_OR_MORE_END)" d="M322.232,85.317L339.344,94.098C356.455,102.878,390.678,120.439,407.789,141.22C424.9,162,424.9,186,424.9,198L424.9,210" class="er relationshipLine"></path><path style="stroke: gray; fill: none;" marker-start="url(#ONLY_ONE_START)" marker-end="url(#ONE_OR_MORE_END)" d="M688.158,322L688.158,334C688.158,346,688.158,370,688.158,390.333C688.158,410.667,688.158,427.333,688.158,435.667L688.158,444" class="er relationshipLine"></path><path style="stroke: gray; fill: none;" marker-start="url(#ONLY_ONE_START)" marker-end="url(#ONE_OR_MORE_END)" d="M572.896,84.694L592.107,93.578C611.317,102.462,649.738,120.231,668.948,141.116C688.158,162,688.158,186,688.158,198L688.158,210" class="er relationshipLine"></path><path style="stroke: gray; fill: none;" marker-start="url(#ONLY_ONE_START)" marker-end="url(#ONE_OR_MORE_END)" d="M440.162,74.354L405.574,84.962C370.986,95.569,301.809,116.785,259.819,135.726C217.828,154.667,203.024,171.333,195.621,179.667L188.219,188" class="er relationshipLine"></path><g transform="translate(602.283203125,1314 )" id="entity-dboCountries-2d9172c1-63db-5fa2-a157-19ca7ca794ba"><rect height="68" width="171.75" y="0" x="0" class="er entityBox"></rect><text style="dominant-baseline: middle; text-anchor: middle; font-size: 12px;" transform="translate(85.875,12)" y="0" x="0" id="text-entity-dboCountries-2d9172c1-63db-5fa2-a157-19ca7ca794ba" class="er entityLabel">dbo.Countries</text><rect height="22" width="73.5" y="24" x="0" class="er attributeBoxOdd"></rect><text style="dominant-baseline: middle; font-size: 10.2px;" transform="translate(5,35)" y="0" x="0" id="text-entity-dboCountries-2d9172c1-63db-5fa2-a157-19ca7ca794ba-attr-1-type" class="er entityLabel">int</text><rect height="22" width="74.640625" y="24" x="73.5" class="er attributeBoxOdd"></rect><text style="dominant-baseline: middle; font-size: 10.2px;" transform="translate(78.5,35)" y="0" x="0" id="text-entity-dboCountries-2d9172c1-63db-5fa2-a157-19ca7ca794ba-attr-1-name" class="er entityLabel">country_id</text><rect height="22" width="23.609375" y="24" x="148.140625" class="er attributeBoxOdd"></rect><text style="dominant-baseline: middle; font-size: 10.2px;" transform="translate(153.140625,35)" y="0" x="0" id="text-entity-dboCountries-2d9172c1-63db-5fa2-a157-19ca7ca794ba-attr-1-comment" class="er entityLabel">PK</text><rect height="22" width="73.5" y="46" x="0" class="er attributeBoxEven"></rect><text style="dominant-baseline: middle; font-size: 10.2px;" transform="translate(5,57)" y="0" x="0" id="text-entity-dboCountries-2d9172c1-63db-5fa2-a157-19ca7ca794ba-attr-2-type" class="er entityLabel">nvarchar(255)</text><rect height="22" width="74.640625" y="46" x="73.5" class="er attributeBoxEven"></rect><text style="dominant-baseline: middle; font-size: 10.2px;" transform="translate(78.5,57)" y="0" x="0" id="text-entity-dboCountries-2d9172c1-63db-5fa2-a157-19ca7ca794ba-attr-2-name" class="er entityLabel">country_name</text><rect height="22" width="23.609375" y="46" x="148.140625" class="er attributeBoxEven"></rect><text style="dominant-baseline: middle; font-size: 10.2px;" transform="translate(153.140625,57)" y="0" x="0" id="text-entity-dboCountries-2d9172c1-63db-5fa2-a157-19ca7ca794ba-attr-2-comment" class="er entityLabel"></text></g><g transform="translate(607.951171875,1124 )" id="entity-dboStates-18277a44-862a-5392-8bc3-09c0f8b78995"><rect height="90" width="160.4140625" y="0" x="0" class="er entityBox"></rect><text style="dominant-baseline: middle; text-anchor: middle; font-size: 12px;" transform="translate(80.20703125,12)" y="0" x="0" id="text-entity-dboStates-18277a44-862a-5392-8bc3-09c0f8b78995" class="er entityLabel">dbo.States</text><rect height="22" width="73.5" y="24" x="0" class="er attributeBoxOdd"></rect><text style="dominant-baseline: middle; font-size: 10.2px;" transform="translate(5,35)" y="0" x="0" id="text-entity-dboStates-18277a44-862a-5392-8bc3-09c0f8b78995-attr-1-type" class="er entityLabel">int</text><rect height="22" width="63.3046875" y="24" x="73.5" class="er attributeBoxOdd"></rect><text style="dominant-baseline: middle; font-size: 10.2px;" transform="translate(78.5,35)" y="0" x="0" id="text-entity-dboStates-18277a44-862a-5392-8bc3-09c0f8b78995-attr-1-name" class="er entityLabel">state_id</text><rect height="22" width="23.609375" y="24" x="136.8046875" class="er attributeBoxOdd"></rect><text style="dominant-baseline: middle; font-size: 10.2px;" transform="translate(141.8046875,35)" y="0" x="0" id="text-entity-dboStates-18277a44-862a-5392-8bc3-09c0f8b78995-attr-1-comment" class="er entityLabel">PK</text><rect height="22" width="73.5" y="46" x="0" class="er attributeBoxEven"></rect><text style="dominant-baseline: middle; font-size: 10.2px;" transform="translate(5,57)" y="0" x="0" id="text-entity-dboStates-18277a44-862a-5392-8bc3-09c0f8b78995-attr-2-type" class="er entityLabel">nvarchar(255)</text><rect height="22" width="63.3046875" y="46" x="73.5" class="er attributeBoxEven"></rect><text style="dominant-baseline: middle; font-size: 10.2px;" transform="translate(78.5,57)" y="0" x="0" id="text-entity-dboStates-18277a44-862a-5392-8bc3-09c0f8b78995-attr-2-name" class="er entityLabel">state_name</text><rect height="22" width="23.609375" y="46" x="136.8046875" class="er attributeBoxEven"></rect><text style="dominant-baseline: middle; font-size: 10.2px;" transform="translate(141.8046875,57)" y="0" x="0" id="text-entity-dboStates-18277a44-862a-5392-8bc3-09c0f8b78995-attr-2-comment" class="er entityLabel"></text><rect height="22" width="73.5" y="68" x="0" class="er attributeBoxOdd"></rect><text style="dominant-baseline: middle; font-size: 10.2px;" transform="translate(5,79)" y="0" x="0" id="text-entity-dboStates-18277a44-862a-5392-8bc3-09c0f8b78995-attr-3-type" class="er entityLabel">int</text><rect height="22" width="63.3046875" y="68" x="73.5" class="er attributeBoxOdd"></rect><text style="dominant-baseline: middle; font-size: 10.2px;" transform="translate(78.5,79)" y="0" x="0" id="text-entity-dboStates-18277a44-862a-5392-8bc3-09c0f8b78995-attr-3-name" class="er entityLabel">country_id</text><rect height="22" width="23.609375" y="68" x="136.8046875" class="er attributeBoxOdd"></rect><text style="dominant-baseline: middle; font-size: 10.2px;" transform="translate(141.8046875,79)" y="0" x="0" id="text-entity-dboStates-18277a44-862a-5392-8bc3-09c0f8b78995-attr-3-comment" class="er entityLabel">FK</text></g><g transform="translate(611.357421875,934 )" id="entity-dboCities-8572f8c0-a56d-54a0-ac36-fbe0145ecf3b"><rect height="90" width="153.6015625" y="0" x="0" class="er entityBox"></rect><text style="dominant-baseline: middle; text-anchor: middle; font-size: 12px;" transform="translate(76.80078125,12)" y="0" x="0" id="text-entity-dboCities-8572f8c0-a56d-54a0-ac36-fbe0145ecf3b" class="er entityLabel">dbo.Cities</text><rect height="22" width="73.5" y="24" x="0" class="er attributeBoxOdd"></rect><text style="dominant-baseline: middle; font-size: 10.2px;" transform="translate(5,35)" y="0" x="0" id="text-entity-dboCities-8572f8c0-a56d-54a0-ac36-fbe0145ecf3b-attr-1-type" class="er entityLabel">int</text><rect height="22" width="56.4921875" y="24" x="73.5" class="er attributeBoxOdd"></rect><text style="dominant-baseline: middle; font-size: 10.2px;" transform="translate(78.5,35)" y="0" x="0" id="text-entity-dboCities-8572f8c0-a56d-54a0-ac36-fbe0145ecf3b-attr-1-name" class="er entityLabel">city_id</text><rect height="22" width="23.609375" y="24" x="129.9921875" class="er attributeBoxOdd"></rect><text style="dominant-baseline: middle; font-size: 10.2px;" transform="translate(134.9921875,35)" y="0" x="0" id="text-entity-dboCities-8572f8c0-a56d-54a0-ac36-fbe0145ecf3b-attr-1-comment" class="er entityLabel">PK</text><rect height="22" width="73.5" y="46" x="0" class="er attributeBoxEven"></rect><text style="dominant-baseline: middle; font-size: 10.2px;" transform="translate(5,57)" y="0" x="0" id="text-entity-dboCities-8572f8c0-a56d-54a0-ac36-fbe0145ecf3b-attr-2-type" class="er entityLabel">nvarchar(255)</text><rect height="22" width="56.4921875" y="46" x="73.5" class="er attributeBoxEven"></rect><text style="dominant-baseline: middle; font-size: 10.2px;" transform="translate(78.5,57)" y="0" x="0" id="text-entity-dboCities-8572f8c0-a56d-54a0-ac36-fbe0145ecf3b-attr-2-name" class="er entityLabel">city_name</text><rect height="22" width="23.609375" y="46" x="129.9921875" class="er attributeBoxEven"></rect><text style="dominant-baseline: middle; font-size: 10.2px;" transform="translate(134.9921875,57)" y="0" x="0" id="text-entity-dboCities-8572f8c0-a56d-54a0-ac36-fbe0145ecf3b-attr-2-comment" class="er entityLabel"></text><rect height="22" width="73.5" y="68" x="0" class="er attributeBoxOdd"></rect><text style="dominant-baseline: middle; font-size: 10.2px;" transform="translate(5,79)" y="0" x="0" id="text-entity-dboCities-8572f8c0-a56d-54a0-ac36-fbe0145ecf3b-attr-3-type" class="er entityLabel">int</text><rect height="22" width="56.4921875" y="68" x="73.5" class="er attributeBoxOdd"></rect><text style="dominant-baseline: middle; font-size: 10.2px;" transform="translate(78.5,79)" y="0" x="0" id="text-entity-dboCities-8572f8c0-a56d-54a0-ac36-fbe0145ecf3b-attr-3-name" class="er entityLabel">state_id</text><rect height="22" width="23.609375" y="68" x="129.9921875" class="er attributeBoxOdd"></rect><text style="dominant-baseline: middle; font-size: 10.2px;" transform="translate(134.9921875,79)" y="0" x="0" id="text-entity-dboCities-8572f8c0-a56d-54a0-ac36-fbe0145ecf3b-attr-3-comment" class="er entityLabel">FK</text></g><g transform="translate(610.216796875,744 )" id="entity-dboZipCodes-50f08cbf-1ed2-58b5-9ff5-5a35ba15b497"><rect height="90" width="155.8828125" y="0" x="0" class="er entityBox"></rect><text style="dominant-baseline: middle; text-anchor: middle; font-size: 12px;" transform="translate(77.94140625,12)" y="0" x="0" id="text-entity-dboZipCodes-50f08cbf-1ed2-58b5-9ff5-5a35ba15b497" class="er entityLabel">dbo.ZipCodes</text><rect height="22" width="67.828125" y="24" x="0" class="er attributeBoxOdd"></rect><text style="dominant-baseline: middle; font-size: 10.2px;" transform="translate(5,35)" y="0" x="0" id="text-entity-dboZipCodes-50f08cbf-1ed2-58b5-9ff5-5a35ba15b497-attr-1-type" class="er entityLabel">int</text><rect height="22" width="64.4453125" y="24" x="67.828125" class="er attributeBoxOdd"></rect><text style="dominant-baseline: middle; font-size: 10.2px;" transform="translate(72.828125,35)" y="0" x="0" id="text-entity-dboZipCodes-50f08cbf-1ed2-58b5-9ff5-5a35ba15b497-attr-1-name" class="er entityLabel">zip_code_id</text><rect height="22" width="23.609375" y="24" x="132.2734375" class="er attributeBoxOdd"></rect><text style="dominant-baseline: middle; font-size: 10.2px;" transform="translate(137.2734375,35)" y="0" x="0" id="text-entity-dboZipCodes-50f08cbf-1ed2-58b5-9ff5-5a35ba15b497-attr-1-comment" class="er entityLabel">PK</text><rect height="22" width="67.828125" y="46" x="0" class="er attributeBoxEven"></rect><text style="dominant-baseline: middle; font-size: 10.2px;" transform="translate(5,57)" y="0" x="0" id="text-entity-dboZipCodes-50f08cbf-1ed2-58b5-9ff5-5a35ba15b497-attr-2-type" class="er entityLabel">nvarchar(20)</text><rect height="22" width="64.4453125" y="46" x="67.828125" class="er attributeBoxEven"></rect><text style="dominant-baseline: middle; font-size: 10.2px;" transform="translate(72.828125,57)" y="0" x="0" id="text-entity-dboZipCodes-50f08cbf-1ed2-58b5-9ff5-5a35ba15b497-attr-2-name" class="er entityLabel">zip_code</text><rect height="22" width="23.609375" y="46" x="132.2734375" class="er attributeBoxEven"></rect><text style="dominant-baseline: middle; font-size: 10.2px;" transform="translate(137.2734375,57)" y="0" x="0" id="text-entity-dboZipCodes-50f08cbf-1ed2-58b5-9ff5-5a35ba15b497-attr-2-comment" class="er entityLabel"></text><rect height="22" width="67.828125" y="68" x="0" class="er attributeBoxOdd"></rect><text style="dominant-baseline: middle; font-size: 10.2px;" transform="translate(5,79)" y="0" x="0" id="text-entity-dboZipCodes-50f08cbf-1ed2-58b5-9ff5-5a35ba15b497-attr-3-type" class="er entityLabel">int</text><rect height="22" width="64.4453125" y="68" x="67.828125" class="er attributeBoxOdd"></rect><text style="dominant-baseline: middle; font-size: 10.2px;" transform="translate(72.828125,79)" y="0" x="0" id="text-entity-dboZipCodes-50f08cbf-1ed2-58b5-9ff5-5a35ba15b497-attr-3-name" class="er entityLabel">city_id</text><rect height="22" width="23.609375" y="68" x="132.2734375" class="er attributeBoxOdd"></rect><text style="dominant-baseline: middle; font-size: 10.2px;" transform="translate(137.2734375,79)" y="0" x="0" id="text-entity-dboZipCodes-50f08cbf-1ed2-58b5-9ff5-5a35ba15b497-attr-3-comment" class="er entityLabel">FK</text></g><g transform="translate(600.865234375,444 )" id="entity-dboUsers-6df9b671-cf2d-5718-952e-8960f91cdd93"><rect height="200" width="174.5859375" y="0" x="0" class="er entityBox"></rect><text style="dominant-baseline: middle; text-anchor: middle; font-size: 12px;" transform="translate(87.29296875,12)" y="0" x="0" id="text-entity-dboUsers-6df9b671-cf2d-5718-952e-8960f91cdd93" class="er entityLabel">dbo.Users</text><rect height="22" width="73.5" y="24" x="0" class="er attributeBoxOdd"></rect><text style="dominant-baseline: middle; font-size: 10.2px;" transform="translate(5,35)" y="0" x="0" id="text-entity-dboUsers-6df9b671-cf2d-5718-952e-8960f91cdd93-attr-1-type" class="er entityLabel">int</text><rect height="22" width="77.4765625" y="24" x="73.5" class="er attributeBoxOdd"></rect><text style="dominant-baseline: middle; font-size: 10.2px;" transform="translate(78.5,35)" y="0" x="0" id="text-entity-dboUsers-6df9b671-cf2d-5718-952e-8960f91cdd93-attr-1-name" class="er entityLabel">id</text><rect height="22" width="23.609375" y="24" x="150.9765625" class="er attributeBoxOdd"></rect><text style="dominant-baseline: middle; font-size: 10.2px;" transform="translate(155.9765625,35)" y="0" x="0" id="text-entity-dboUsers-6df9b671-cf2d-5718-952e-8960f91cdd93-attr-1-comment" class="er entityLabel">PK</text><rect height="22" width="73.5" y="46" x="0" class="er attributeBoxEven"></rect><text style="dominant-baseline: middle; font-size: 10.2px;" transform="translate(5,57)" y="0" x="0" id="text-entity-dboUsers-6df9b671-cf2d-5718-952e-8960f91cdd93-attr-2-type" class="er entityLabel">nvarchar(255)</text><rect height="22" width="77.4765625" y="46" x="73.5" class="er attributeBoxEven"></rect><text style="dominant-baseline: middle; font-size: 10.2px;" transform="translate(78.5,57)" y="0" x="0" id="text-entity-dboUsers-6df9b671-cf2d-5718-952e-8960f91cdd93-attr-2-name" class="er entityLabel">username</text><rect height="22" width="23.609375" y="46" x="150.9765625" class="er attributeBoxEven"></rect><text style="dominant-baseline: middle; font-size: 10.2px;" transform="translate(155.9765625,57)" y="0" x="0" id="text-entity-dboUsers-6df9b671-cf2d-5718-952e-8960f91cdd93-attr-2-comment" class="er entityLabel"></text><rect height="22" width="73.5" y="68" x="0" class="er attributeBoxOdd"></rect><text style="dominant-baseline: middle; font-size: 10.2px;" transform="translate(5,79)" y="0" x="0" id="text-entity-dboUsers-6df9b671-cf2d-5718-952e-8960f91cdd93-attr-3-type" class="er entityLabel">nvarchar(255)</text><rect height="22" width="77.4765625" y="68" x="73.5" class="er attributeBoxOdd"></rect><text style="dominant-baseline: middle; font-size: 10.2px;" transform="translate(78.5,79)" y="0" x="0" id="text-entity-dboUsers-6df9b671-cf2d-5718-952e-8960f91cdd93-attr-3-name" class="er entityLabel">password</text><rect height="22" width="23.609375" y="68" x="150.9765625" class="er attributeBoxOdd"></rect><text style="dominant-baseline: middle; font-size: 10.2px;" transform="translate(155.9765625,79)" y="0" x="0" id="text-entity-dboUsers-6df9b671-cf2d-5718-952e-8960f91cdd93-attr-3-comment" class="er entityLabel"></text><rect height="22" width="73.5" y="90" x="0" class="er attributeBoxEven"></rect><text style="dominant-baseline: middle; font-size: 10.2px;" transform="translate(5,101)" y="0" x="0" id="text-entity-dboUsers-6df9b671-cf2d-5718-952e-8960f91cdd93-attr-4-type" class="er entityLabel">nvarchar(255)</text><rect height="22" width="77.4765625" y="90" x="73.5" class="er attributeBoxEven"></rect><text style="dominant-baseline: middle; font-size: 10.2px;" transform="translate(78.5,101)" y="0" x="0" id="text-entity-dboUsers-6df9b671-cf2d-5718-952e-8960f91cdd93-attr-4-name" class="er entityLabel">email</text><rect height="22" width="23.609375" y="90" x="150.9765625" class="er attributeBoxEven"></rect><text style="dominant-baseline: middle; font-size: 10.2px;" transform="translate(155.9765625,101)" y="0" x="0" id="text-entity-dboUsers-6df9b671-cf2d-5718-952e-8960f91cdd93-attr-4-comment" class="er entityLabel"></text><rect height="22" width="73.5" y="112" x="0" class="er attributeBoxOdd"></rect><text style="dominant-baseline: middle; font-size: 10.2px;" transform="translate(5,123)" y="0" x="0" id="text-entity-dboUsers-6df9b671-cf2d-5718-952e-8960f91cdd93-attr-5-type" class="er entityLabel">nvarchar(255)</text><rect height="22" width="77.4765625" y="112" x="73.5" class="er attributeBoxOdd"></rect><text style="dominant-baseline: middle; font-size: 10.2px;" transform="translate(78.5,123)" y="0" x="0" id="text-entity-dboUsers-6df9b671-cf2d-5718-952e-8960f91cdd93-attr-5-name" class="er entityLabel">street_address</text><rect height="22" width="23.609375" y="112" x="150.9765625" class="er attributeBoxOdd"></rect><text style="dominant-baseline: middle; font-size: 10.2px;" transform="translate(155.9765625,123)" y="0" x="0" id="text-entity-dboUsers-6df9b671-cf2d-5718-952e-8960f91cdd93-attr-5-comment" class="er entityLabel"></text><rect height="22" width="73.5" y="134" x="0" class="er attributeBoxEven"></rect><text style="dominant-baseline: middle; font-size: 10.2px;" transform="translate(5,145)" y="0" x="0" id="text-entity-dboUsers-6df9b671-cf2d-5718-952e-8960f91cdd93-attr-6-type" class="er entityLabel">int</text><rect height="22" width="77.4765625" y="134" x="73.5" class="er attributeBoxEven"></rect><text style="dominant-baseline: middle; font-size: 10.2px;" transform="translate(78.5,145)" y="0" x="0" id="text-entity-dboUsers-6df9b671-cf2d-5718-952e-8960f91cdd93-attr-6-name" class="er entityLabel">zip_code_id</text><rect height="22" width="23.609375" y="134" x="150.9765625" class="er attributeBoxEven"></rect><text style="dominant-baseline: middle; font-size: 10.2px;" transform="translate(155.9765625,145)" y="0" x="0" id="text-entity-dboUsers-6df9b671-cf2d-5718-952e-8960f91cdd93-attr-6-comment" class="er entityLabel">FK</text><rect height="22" width="73.5" y="156" x="0" class="er attributeBoxOdd"></rect><text style="dominant-baseline: middle; font-size: 10.2px;" transform="translate(5,167)" y="0" x="0" id="text-entity-dboUsers-6df9b671-cf2d-5718-952e-8960f91cdd93-attr-7-type" class="er entityLabel">nvarchar(255)</text><rect height="22" width="77.4765625" y="156" x="73.5" class="er attributeBoxOdd"></rect><text style="dominant-baseline: middle; font-size: 10.2px;" transform="translate(78.5,167)" y="0" x="0" id="text-entity-dboUsers-6df9b671-cf2d-5718-952e-8960f91cdd93-attr-7-name" class="er entityLabel">first_name</text><rect height="22" width="23.609375" y="156" x="150.9765625" class="er attributeBoxOdd"></rect><text style="dominant-baseline: middle; font-size: 10.2px;" transform="translate(155.9765625,167)" y="0" x="0" id="text-entity-dboUsers-6df9b671-cf2d-5718-952e-8960f91cdd93-attr-7-comment" class="er entityLabel"></text><rect height="22" width="73.5" y="178" x="0" class="er attributeBoxEven"></rect><text style="dominant-baseline: middle; font-size: 10.2px;" transform="translate(5,189)" y="0" x="0" id="text-entity-dboUsers-6df9b671-cf2d-5718-952e-8960f91cdd93-attr-8-type" class="er entityLabel">nvarchar(255)</text><rect height="22" width="77.4765625" y="178" x="73.5" class="er attributeBoxEven"></rect><text style="dominant-baseline: middle; font-size: 10.2px;" transform="translate(78.5,189)" y="0" x="0" id="text-entity-dboUsers-6df9b671-cf2d-5718-952e-8960f91cdd93-attr-8-name" class="er entityLabel">last_name</text><rect height="22" width="23.609375" y="178" x="150.9765625" class="er attributeBoxEven"></rect><text style="dominant-baseline: middle; font-size: 10.2px;" transform="translate(155.9765625,189)" y="0" x="0" id="text-entity-dboUsers-6df9b671-cf2d-5718-952e-8960f91cdd93-attr-8-comment" class="er entityLabel"></text></g><g transform="translate(20,188 )" id="entity-dboBooks-437dc55c-16cb-5459-a621-7ca6f41e35d2"><rect height="156" width="197.8671875" y="0" x="0" class="er entityBox"></rect><text style="dominant-baseline: middle; text-anchor: middle; font-size: 12px;" transform="translate(98.93359375,12)" y="0" x="0" id="text-entity-dboBooks-437dc55c-16cb-5459-a621-7ca6f41e35d2" class="er entityLabel">dbo.Books</text><rect height="22" width="89.96875" y="24" x="0" class="er attributeBoxOdd"></rect><text style="dominant-baseline: middle; font-size: 10.2px;" transform="translate(5,35)" y="0" x="0" id="text-entity-dboBooks-437dc55c-16cb-5459-a621-7ca6f41e35d2-attr-1-type" class="er entityLabel">int</text><rect height="22" width="84.2890625" y="24" x="89.96875" class="er attributeBoxOdd"></rect><text style="dominant-baseline: middle; font-size: 10.2px;" transform="translate(94.96875,35)" y="0" x="0" id="text-entity-dboBooks-437dc55c-16cb-5459-a621-7ca6f41e35d2-attr-1-name" class="er entityLabel">book_id</text><rect height="22" width="23.609375" y="24" x="174.2578125" class="er attributeBoxOdd"></rect><text style="dominant-baseline: middle; font-size: 10.2px;" transform="translate(179.2578125,35)" y="0" x="0" id="text-entity-dboBooks-437dc55c-16cb-5459-a621-7ca6f41e35d2-attr-1-comment" class="er entityLabel">PK</text><rect height="22" width="89.96875" y="46" x="0" class="er attributeBoxEven"></rect><text style="dominant-baseline: middle; font-size: 10.2px;" transform="translate(5,57)" y="0" x="0" id="text-entity-dboBooks-437dc55c-16cb-5459-a621-7ca6f41e35d2-attr-2-type" class="er entityLabel">nvarchar(255)</text><rect height="22" width="84.2890625" y="46" x="89.96875" class="er attributeBoxEven"></rect><text style="dominant-baseline: middle; font-size: 10.2px;" transform="translate(94.96875,57)" y="0" x="0" id="text-entity-dboBooks-437dc55c-16cb-5459-a621-7ca6f41e35d2-attr-2-name" class="er entityLabel">title</text><rect height="22" width="23.609375" y="46" x="174.2578125" class="er attributeBoxEven"></rect><text style="dominant-baseline: middle; font-size: 10.2px;" transform="translate(179.2578125,57)" y="0" x="0" id="text-entity-dboBooks-437dc55c-16cb-5459-a621-7ca6f41e35d2-attr-2-comment" class="er entityLabel"></text><rect height="22" width="89.96875" y="68" x="0" class="er attributeBoxOdd"></rect><text style="dominant-baseline: middle; font-size: 10.2px;" transform="translate(5,79)" y="0" x="0" id="text-entity-dboBooks-437dc55c-16cb-5459-a621-7ca6f41e35d2-attr-3-type" class="er entityLabel">nvarchar(13)</text><rect height="22" width="84.2890625" y="68" x="89.96875" class="er attributeBoxOdd"></rect><text style="dominant-baseline: middle; font-size: 10.2px;" transform="translate(94.96875,79)" y="0" x="0" id="text-entity-dboBooks-437dc55c-16cb-5459-a621-7ca6f41e35d2-attr-3-name" class="er entityLabel">isbn</text><rect height="22" width="23.609375" y="68" x="174.2578125" class="er attributeBoxOdd"></rect><text style="dominant-baseline: middle; font-size: 10.2px;" transform="translate(179.2578125,79)" y="0" x="0" id="text-entity-dboBooks-437dc55c-16cb-5459-a621-7ca6f41e35d2-attr-3-comment" class="er entityLabel"></text><rect height="22" width="89.96875" y="90" x="0" class="er attributeBoxEven"></rect><text style="dominant-baseline: middle; font-size: 10.2px;" transform="translate(5,101)" y="0" x="0" id="text-entity-dboBooks-437dc55c-16cb-5459-a621-7ca6f41e35d2-attr-4-type" class="er entityLabel">int</text><rect height="22" width="84.2890625" y="90" x="89.96875" class="er attributeBoxEven"></rect><text style="dominant-baseline: middle; font-size: 10.2px;" transform="translate(94.96875,101)" y="0" x="0" id="text-entity-dboBooks-437dc55c-16cb-5459-a621-7ca6f41e35d2-attr-4-name" class="er entityLabel">publication_year</text><rect height="22" width="23.609375" y="90" x="174.2578125" class="er attributeBoxEven"></rect><text style="dominant-baseline: middle; font-size: 10.2px;" transform="translate(179.2578125,101)" y="0" x="0" id="text-entity-dboBooks-437dc55c-16cb-5459-a621-7ca6f41e35d2-attr-4-comment" class="er entityLabel"></text><rect height="22" width="89.96875" y="112" x="0" class="er attributeBoxOdd"></rect><text style="dominant-baseline: middle; font-size: 10.2px;" transform="translate(5,123)" y="0" x="0" id="text-entity-dboBooks-437dc55c-16cb-5459-a621-7ca6f41e35d2-attr-5-type" class="er entityLabel">nvarchar(100)</text><rect height="22" width="84.2890625" y="112" x="89.96875" class="er attributeBoxOdd"></rect><text style="dominant-baseline: middle; font-size: 10.2px;" transform="translate(94.96875,123)" y="0" x="0" id="text-entity-dboBooks-437dc55c-16cb-5459-a621-7ca6f41e35d2-attr-5-name" class="er entityLabel">genre</text><rect height="22" width="23.609375" y="112" x="174.2578125" class="er attributeBoxOdd"></rect><text style="dominant-baseline: middle; font-size: 10.2px;" transform="translate(179.2578125,123)" y="0" x="0" id="text-entity-dboBooks-437dc55c-16cb-5459-a621-7ca6f41e35d2-attr-5-comment" class="er entityLabel"></text><rect height="22" width="89.96875" y="134" x="0" class="er attributeBoxEven"></rect><text style="dominant-baseline: middle; font-size: 10.2px;" transform="translate(5,145)" y="0" x="0" id="text-entity-dboBooks-437dc55c-16cb-5459-a621-7ca6f41e35d2-attr-6-type" class="er entityLabel">text(2147483647)</text><rect height="22" width="84.2890625" y="134" x="89.96875" class="er attributeBoxEven"></rect><text style="dominant-baseline: middle; font-size: 10.2px;" transform="translate(94.96875,145)" y="0" x="0" id="text-entity-dboBooks-437dc55c-16cb-5459-a621-7ca6f41e35d2-attr-6-name" class="er entityLabel">description</text><rect height="22" width="23.609375" y="134" x="174.2578125" class="er attributeBoxEven"></rect><text style="dominant-baseline: middle; font-size: 10.2px;" transform="translate(179.2578125,145)" y="0" x="0" id="text-entity-dboBooks-437dc55c-16cb-5459-a621-7ca6f41e35d2-attr-6-comment" class="er entityLabel"></text></g><g transform="translate(339.298828125,210 )" id="entity-dboAuthors-0c7580b1-0852-521d-bf85-2f05cc79d12d"><rect height="112" width="171.203125" y="0" x="0" class="er entityBox"></rect><text style="dominant-baseline: middle; text-anchor: middle; font-size: 12px;" transform="translate(85.6015625,12)" y="0" x="0" id="text-entity-dboAuthors-0c7580b1-0852-521d-bf85-2f05cc79d12d" class="er entityLabel">dbo.Authors</text><rect height="22" width="89.96875" y="24" x="0" class="er attributeBoxOdd"></rect><text style="dominant-baseline: middle; font-size: 10.2px;" transform="translate(5,35)" y="0" x="0" id="text-entity-dboAuthors-0c7580b1-0852-521d-bf85-2f05cc79d12d-attr-1-type" class="er entityLabel">int</text><rect height="22" width="57.625" y="24" x="89.96875" class="er attributeBoxOdd"></rect><text style="dominant-baseline: middle; font-size: 10.2px;" transform="translate(94.96875,35)" y="0" x="0" id="text-entity-dboAuthors-0c7580b1-0852-521d-bf85-2f05cc79d12d-attr-1-name" class="er entityLabel">author_id</text><rect height="22" width="23.609375" y="24" x="147.59375" class="er attributeBoxOdd"></rect><text style="dominant-baseline: middle; font-size: 10.2px;" transform="translate(152.59375,35)" y="0" x="0" id="text-entity-dboAuthors-0c7580b1-0852-521d-bf85-2f05cc79d12d-attr-1-comment" class="er entityLabel">PK</text><rect height="22" width="89.96875" y="46" x="0" class="er attributeBoxEven"></rect><text style="dominant-baseline: middle; font-size: 10.2px;" transform="translate(5,57)" y="0" x="0" id="text-entity-dboAuthors-0c7580b1-0852-521d-bf85-2f05cc79d12d-attr-2-type" class="er entityLabel">nvarchar(255)</text><rect height="22" width="57.625" y="46" x="89.96875" class="er attributeBoxEven"></rect><text style="dominant-baseline: middle; font-size: 10.2px;" transform="translate(94.96875,57)" y="0" x="0" id="text-entity-dboAuthors-0c7580b1-0852-521d-bf85-2f05cc79d12d-attr-2-name" class="er entityLabel">first_name</text><rect height="22" width="23.609375" y="46" x="147.59375" class="er attributeBoxEven"></rect><text style="dominant-baseline: middle; font-size: 10.2px;" transform="translate(152.59375,57)" y="0" x="0" id="text-entity-dboAuthors-0c7580b1-0852-521d-bf85-2f05cc79d12d-attr-2-comment" class="er entityLabel"></text><rect height="22" width="89.96875" y="68" x="0" class="er attributeBoxOdd"></rect><text style="dominant-baseline: middle; font-size: 10.2px;" transform="translate(5,79)" y="0" x="0" id="text-entity-dboAuthors-0c7580b1-0852-521d-bf85-2f05cc79d12d-attr-3-type" class="er entityLabel">nvarchar(255)</text><rect height="22" width="57.625" y="68" x="89.96875" class="er attributeBoxOdd"></rect><text style="dominant-baseline: middle; font-size: 10.2px;" transform="translate(94.96875,79)" y="0" x="0" id="text-entity-dboAuthors-0c7580b1-0852-521d-bf85-2f05cc79d12d-attr-3-name" class="er entityLabel">last_name</text><rect height="22" width="23.609375" y="68" x="147.59375" class="er attributeBoxOdd"></rect><text style="dominant-baseline: middle; font-size: 10.2px;" transform="translate(152.59375,79)" y="0" x="0" id="text-entity-dboAuthors-0c7580b1-0852-521d-bf85-2f05cc79d12d-attr-3-comment" class="er entityLabel"></text><rect height="22" width="89.96875" y="90" x="0" class="er attributeBoxEven"></rect><text style="dominant-baseline: middle; font-size: 10.2px;" transform="translate(5,101)" y="0" x="0" id="text-entity-dboAuthors-0c7580b1-0852-521d-bf85-2f05cc79d12d-attr-4-type" class="er entityLabel">text(2147483647)</text><rect height="22" width="57.625" y="90" x="89.96875" class="er attributeBoxEven"></rect><text style="dominant-baseline: middle; font-size: 10.2px;" transform="translate(94.96875,101)" y="0" x="0" id="text-entity-dboAuthors-0c7580b1-0852-521d-bf85-2f05cc79d12d-attr-4-name" class="er entityLabel">bio</text><rect height="22" width="23.609375" y="90" x="147.59375" class="er attributeBoxEven"></rect><text style="dominant-baseline: middle; font-size: 10.2px;" transform="translate(152.59375,101)" y="0" x="0" id="text-entity-dboAuthors-0c7580b1-0852-521d-bf85-2f05cc79d12d-attr-4-comment" class="er entityLabel"></text></g><g transform="translate(200.169921875,20 )" id="entity-dboBookAuthors-dab006c0-773c-5cba-876b-43b4d65923ed"><rect height="68" width="122.0625" y="0" x="0" class="er entityBox"></rect><text style="dominant-baseline: middle; text-anchor: middle; font-size: 12px;" transform="translate(61.03125,12)" y="0" x="0" id="text-entity-dboBookAuthors-dab006c0-773c-5cba-876b-43b4d65923ed" class="er entityLabel">dbo.BookAuthors</text><rect height="22" width="22.919270833333332" y="24" x="0" class="er attributeBoxOdd"></rect><text style="dominant-baseline: middle; font-size: 10.2px;" transform="translate(5,35)" y="0" x="0" id="text-entity-dboBookAuthors-dab006c0-773c-5cba-876b-43b4d65923ed-attr-1-type" class="er entityLabel">int</text><rect height="22" width="54.684895833333336" y="24" x="22.919270833333332" class="er attributeBoxOdd"></rect><text style="dominant-baseline: middle; font-size: 10.2px;" transform="translate(27.919270833333332,35)" y="0" x="0" id="text-entity-dboBookAuthors-dab006c0-773c-5cba-876b-43b4d65923ed-attr-1-name" class="er entityLabel">book_id</text><rect height="22" width="44.458333333333336" y="24" x="77.60416666666667" class="er attributeBoxOdd"></rect><text style="dominant-baseline: middle; font-size: 10.2px;" transform="translate(82.60416666666667,35)" y="0" x="0" id="text-entity-dboBookAuthors-dab006c0-773c-5cba-876b-43b4d65923ed-attr-1-comment" class="er entityLabel">FK, PK</text><rect height="22" width="22.919270833333332" y="46" x="0" class="er attributeBoxEven"></rect><text style="dominant-baseline: middle; font-size: 10.2px;" transform="translate(5,57)" y="0" x="0" id="text-entity-dboBookAuthors-dab006c0-773c-5cba-876b-43b4d65923ed-attr-2-type" class="er entityLabel">int</text><rect height="22" width="54.684895833333336" y="46" x="22.919270833333332" class="er attributeBoxEven"></rect><text style="dominant-baseline: middle; font-size: 10.2px;" transform="translate(27.919270833333332,57)" y="0" x="0" id="text-entity-dboBookAuthors-dab006c0-773c-5cba-876b-43b4d65923ed-attr-2-name" class="er entityLabel">author_id</text><rect height="22" width="44.458333333333336" y="46" x="77.60416666666667" class="er attributeBoxEven"></rect><text style="dominant-baseline: middle; font-size: 10.2px;" transform="translate(82.60416666666667,57)" y="0" x="0" id="text-entity-dboBookAuthors-dab006c0-773c-5cba-876b-43b4d65923ed-attr-2-comment" class="er entityLabel">FK, PK</text></g><g transform="translate(610.501953125,210 )" id="entity-dboBookLists-a3ad035d-8f74-51f3-adb0-27e623e19fae"><rect height="112" width="155.3125" y="0" x="0" class="er entityBox"></rect><text style="dominant-baseline: middle; text-anchor: middle; font-size: 12px;" transform="translate(77.65625,12)" y="0" x="0" id="text-entity-dboBookLists-a3ad035d-8f74-51f3-adb0-27e623e19fae" class="er entityLabel">dbo.BookLists</text><rect height="22" width="73.5" y="24" x="0" class="er attributeBoxOdd"></rect><text style="dominant-baseline: middle; font-size: 10.2px;" transform="translate(5,35)" y="0" x="0" id="text-entity-dboBookLists-a3ad035d-8f74-51f3-adb0-27e623e19fae-attr-1-type" class="er entityLabel">int</text><rect height="22" width="58.203125" y="24" x="73.5" class="er attributeBoxOdd"></rect><text style="dominant-baseline: middle; font-size: 10.2px;" transform="translate(78.5,35)" y="0" x="0" id="text-entity-dboBookLists-a3ad035d-8f74-51f3-adb0-27e623e19fae-attr-1-name" class="er entityLabel">list_id</text><rect height="22" width="23.609375" y="24" x="131.703125" class="er attributeBoxOdd"></rect><text style="dominant-baseline: middle; font-size: 10.2px;" transform="translate(136.703125,35)" y="0" x="0" id="text-entity-dboBookLists-a3ad035d-8f74-51f3-adb0-27e623e19fae-attr-1-comment" class="er entityLabel">PK</text><rect height="22" width="73.5" y="46" x="0" class="er attributeBoxEven"></rect><text style="dominant-baseline: middle; font-size: 10.2px;" transform="translate(5,57)" y="0" x="0" id="text-entity-dboBookLists-a3ad035d-8f74-51f3-adb0-27e623e19fae-attr-2-type" class="er entityLabel">int</text><rect height="22" width="58.203125" y="46" x="73.5" class="er attributeBoxEven"></rect><text style="dominant-baseline: middle; font-size: 10.2px;" transform="translate(78.5,57)" y="0" x="0" id="text-entity-dboBookLists-a3ad035d-8f74-51f3-adb0-27e623e19fae-attr-2-name" class="er entityLabel">user_id</text><rect height="22" width="23.609375" y="46" x="131.703125" class="er attributeBoxEven"></rect><text style="dominant-baseline: middle; font-size: 10.2px;" transform="translate(136.703125,57)" y="0" x="0" id="text-entity-dboBookLists-a3ad035d-8f74-51f3-adb0-27e623e19fae-attr-2-comment" class="er entityLabel">FK</text><rect height="22" width="73.5" y="68" x="0" class="er attributeBoxOdd"></rect><text style="dominant-baseline: middle; font-size: 10.2px;" transform="translate(5,79)" y="0" x="0" id="text-entity-dboBookLists-a3ad035d-8f74-51f3-adb0-27e623e19fae-attr-3-type" class="er entityLabel">nvarchar(255)</text><rect height="22" width="58.203125" y="68" x="73.5" class="er attributeBoxOdd"></rect><text style="dominant-baseline: middle; font-size: 10.2px;" transform="translate(78.5,79)" y="0" x="0" id="text-entity-dboBookLists-a3ad035d-8f74-51f3-adb0-27e623e19fae-attr-3-name" class="er entityLabel">list_name</text><rect height="22" width="23.609375" y="68" x="131.703125" class="er attributeBoxOdd"></rect><text style="dominant-baseline: middle; font-size: 10.2px;" transform="translate(136.703125,79)" y="0" x="0" id="text-entity-dboBookLists-a3ad035d-8f74-51f3-adb0-27e623e19fae-attr-3-comment" class="er entityLabel"></text><rect height="22" width="73.5" y="90" x="0" class="er attributeBoxEven"></rect><text style="dominant-baseline: middle; font-size: 10.2px;" transform="translate(5,101)" y="0" x="0" id="text-entity-dboBookLists-a3ad035d-8f74-51f3-adb0-27e623e19fae-attr-4-type" class="er entityLabel">datetime</text><rect height="22" width="58.203125" y="90" x="73.5" class="er attributeBoxEven"></rect><text style="dominant-baseline: middle; font-size: 10.2px;" transform="translate(78.5,101)" y="0" x="0" id="text-entity-dboBookLists-a3ad035d-8f74-51f3-adb0-27e623e19fae-attr-4-name" class="er entityLabel">created_at</text><rect height="22" width="23.609375" y="90" x="131.703125" class="er attributeBoxEven"></rect><text style="dominant-baseline: middle; font-size: 10.2px;" transform="translate(136.703125,101)" y="0" x="0" id="text-entity-dboBookLists-a3ad035d-8f74-51f3-adb0-27e623e19fae-attr-4-comment" class="er entityLabel"></text></g><g transform="translate(440.162109375,20 )" id="entity-dboBookListBooks-d1d788d2-84a6-5c21-bf49-da4fb5e2f1a7"><rect height="68" width="132.734375" y="0" x="0" class="er entityBox"></rect><text style="dominant-baseline: middle; text-anchor: middle; font-size: 12px;" transform="translate(66.3671875,12)" y="0" x="0" id="text-entity-dboBookListBooks-d1d788d2-84a6-5c21-bf49-da4fb5e2f1a7" class="er entityLabel">dbo.BookListBooks</text><rect height="22" width="28.744791666666668" y="24" x="0" class="er attributeBoxOdd"></rect><text style="dominant-baseline: middle; font-size: 10.2px;" transform="translate(5,35)" y="0" x="0" id="text-entity-dboBookListBooks-d1d788d2-84a6-5c21-bf49-da4fb5e2f1a7-attr-1-type" class="er entityLabel">int</text><rect height="22" width="53.705729166666664" y="24" x="28.744791666666668" class="er attributeBoxOdd"></rect><text style="dominant-baseline: middle; font-size: 10.2px;" transform="translate(33.74479166666667,35)" y="0" x="0" id="text-entity-dboBookListBooks-d1d788d2-84a6-5c21-bf49-da4fb5e2f1a7-attr-1-name" class="er entityLabel">list_id</text><rect height="22" width="50.283854166666664" y="24" x="82.45052083333333" class="er attributeBoxOdd"></rect><text style="dominant-baseline: middle; font-size: 10.2px;" transform="translate(87.45052083333333,35)" y="0" x="0" id="text-entity-dboBookListBooks-d1d788d2-84a6-5c21-bf49-da4fb5e2f1a7-attr-1-comment" class="er entityLabel">FK, PK</text><rect height="22" width="28.744791666666668" y="46" x="0" class="er attributeBoxEven"></rect><text style="dominant-baseline: middle; font-size: 10.2px;" transform="translate(5,57)" y="0" x="0" id="text-entity-dboBookListBooks-d1d788d2-84a6-5c21-bf49-da4fb5e2f1a7-attr-2-type" class="er entityLabel">int</text><rect height="22" width="53.705729166666664" y="46" x="28.744791666666668" class="er attributeBoxEven"></rect><text style="dominant-baseline: middle; font-size: 10.2px;" transform="translate(33.74479166666667,57)" y="0" x="0" id="text-entity-dboBookListBooks-d1d788d2-84a6-5c21-bf49-da4fb5e2f1a7-attr-2-name" class="er entityLabel">book_id</text><rect height="22" width="50.283854166666664" y="46" x="82.45052083333333" class="er attributeBoxEven"></rect><text style="dominant-baseline: middle; font-size: 10.2px;" transform="translate(87.45052083333333,57)" y="0" x="0" id="text-entity-dboBookListBooks-d1d788d2-84a6-5c21-bf49-da4fb5e2f1a7-attr-2-comment" class="er entityLabel">FK, PK</text></g><rect height="14" width="55.3671875" y="1257" x="660.4744262695312" class="er relationshipLabelBox"></rect><text style="text-anchor: middle; dominant-baseline: middle; font-size: 12px;" y="1264" x="688.1580200195312" id="rel1" class="er relationshipLabel">country_id</text><rect height="14" width="42.03125" y="1067" x="667.1423950195312" class="er relationshipLabelBox"></rect><text style="text-anchor: middle; dominant-baseline: middle; font-size: 12px;" y="1074" x="688.1580200195312" id="rel2" class="er relationshipLabel">state_id</text><rect height="14" width="34.015625" y="877" x="671.1502075195312" class="er relationshipLabelBox"></rect><text style="text-anchor: middle; dominant-baseline: middle; font-size: 12px;" y="884" x="688.1580200195312" id="rel3" class="er relationshipLabel">city_id</text><rect height="14" width="64.0546875" y="687" x="656.1306762695312" class="er relationshipLabelBox"></rect><text style="text-anchor: middle; dominant-baseline: middle; font-size: 12px;" y="694" x="688.1580200195312" id="rel4" class="er relationshipLabel">zip_code_id</text><rect height="14" width="42.0390625" y="111.29059600830078" x="99.3142318725586" class="er relationshipLabelBox"></rect><text style="text-anchor: middle; dominant-baseline: middle; font-size: 12px;" y="118.29059600830078" x="120.3337631225586" id="rel5" class="er relationshipLabel">book_id</text><rect height="14" width="50.0390625" y="123.45158386230469" x="372.188232421875" class="er relationshipLabelBox"></rect><text style="text-anchor: middle; dominant-baseline: middle; font-size: 12px;" y="130.4515838623047" x="397.207763671875" id="rel6" class="er relationshipLabel">author_id</text><rect height="14" width="9.34375" y="376" x="683.4861450195312" class="er relationshipLabelBox"></rect><text style="text-anchor: middle; dominant-baseline: middle; font-size: 12px;" y="383" x="688.1580200195312" id="rel7" class="er relationshipLabel">id</text><rect height="14" width="30.6796875" y="121.38525390625" x="639.2684936523438" class="er relationshipLabelBox"></rect><text style="text-anchor: middle; dominant-baseline: middle; font-size: 12px;" y="128.38525390625" x="654.6083374023438" id="rel8" class="er relationshipLabel">list_id</text><rect height="14" width="42.0390625" y="110.14916229248047" x="285.76458740234375" class="er relationshipLabelBox"></rect><text style="text-anchor: middle; dominant-baseline: middle; font-size: 12px;" y="117.14916229248047" x="306.78411865234375" id="rel9" class="er relationshipLabel">book_id</text></svg>